<?xml version="1.0" encoding="utf-8"?>
<!-- Generator: Adobe Illustrator 15.1.0, SVG Export Plug-In . SVG Version: 6.00 Build 0)  -->
<!DOCTYPE svg PUBLIC "-//W3C//DTD SVG 1.1//EN" "http://www.w3.org/Graphics/SVG/1.1/DTD/svg11.dtd">
<svg version="1.1" id="Layer_1" xmlns="http://www.w3.org/2000/svg" xmlns:xlink="http://www.w3.org/1999/xlink" x="0px" y="0px"
	 width="291.373px" height="120.989px" viewBox="0 0 291.373 120.989" enable-background="new 0 0 291.373 120.989"
	 xml:space="preserve">
<path fill="#FF8900" d="M144.981,115.139c0,0.6-0.167,1.139-0.495,1.617c-0.329,0.48-0.93,0.869-1.797,1.169
	c-0.87,0.3-2.023,0.538-3.46,0.719c-1.438,0.18-7.717,0.27-9.933,0.27c-2.157,0-3.954-0.09-5.393-0.27
	c-1.438-0.181-2.576-0.419-3.415-0.719c-0.84-0.3-1.438-0.688-1.797-1.169c-0.359-0.479-0.539-1.018-0.539-1.617V20.5h-0.181
	l-33.703,94.548c-0.239,0.778-0.629,1.424-1.168,1.932c-0.539,0.51-1.273,0.914-2.201,1.214c-0.931,0.299-2.113,0.494-3.551,0.584
	c-1.438,0.09-3.177,0.135-5.213,0.135c-2.037,0-3.774-0.076-5.212-0.225c-1.438-0.149-2.622-0.39-3.55-0.72
	c-0.93-0.328-1.663-0.732-2.202-1.213c-0.539-0.479-0.898-1.047-1.078-1.707L27.558,20.5h-0.18v94.638
	c0,0.6-0.166,1.139-0.494,1.617c-0.33,0.48-0.943,0.869-1.842,1.169c-0.898,0.3-2.053,0.538-3.46,0.719
	c-1.408,0.18-3.222,0.27-5.438,0.27c-2.157,0-3.955-0.09-5.393-0.27c-1.438-0.181-2.593-0.419-3.46-0.719
	c-0.869-0.3-1.469-0.688-1.797-1.169C5.165,116.277,5,115.738,5,115.139V11.513c0-3.055,0.809-5.392,2.426-7.01
	c1.619-1.618,3.775-2.426,6.471-2.426h15.459c2.755,0,5.123,0.225,7.1,0.674c1.978,0.449,3.685,1.2,5.123,2.247
	c1.438,1.049,2.636,2.427,3.595,4.135c0.958,1.708,1.798,3.819,2.517,6.336l25.165,69.293L69.07,95.747l30.209-80.1
	c0.777-2.516,1.631-4.642,2.561-6.381c0.929-1.738,2.007-3.145,3.236-4.224c1.227-1.079,2.681-1.843,4.358-2.292
	c1.677-0.449,3.625-0.674,5.842-0.674h15.908c1.618,0,7.462,0.211,8.63,0.629c1.168,0.42,2.126,1.034,2.876,1.842
	c0.749,0.809,1.316,1.797,1.708,2.966c0.39,1.168,0.584,2.503,0.584,3.999V115.139z"/>
<path fill="#FF8900" d="M286.373,115.139c0,0.6-0.165,1.139-0.494,1.617c-0.33,0.48-0.929,0.869-1.798,1.169
	c-0.868,0.3-6.244,0.538-7.683,0.719c-1.439,0.18-3.266,0.27-5.482,0.27c-2.157,0-3.955-0.09-5.393-0.27
	c-1.438-0.181-2.575-0.419-3.416-0.719c-0.838-0.3-1.438-0.688-1.797-1.169c-0.359-0.479-0.54-1.018-0.54-1.617V20.5h-0.179
	l-33.703,94.548c-0.239,0.778-0.629,1.424-1.169,1.932c-0.54,0.51-1.273,0.914-2.201,1.214c-0.93,0.299-2.112,0.494-3.551,0.584
	c-1.438,0.09-3.176,0.135-5.212,0.135c-2.038,0-3.775-0.076-5.213-0.225c-1.438-0.149-2.621-0.39-3.55-0.72
	c-0.931-0.328-1.663-0.732-2.202-1.213c-0.54-0.479-0.898-1.047-1.078-1.707L169.178,20.5h-0.18v94.638
	c0,0.6-0.166,1.139-0.494,1.617c-0.329,0.48-0.944,0.869-1.842,1.169c-0.899,0.3-2.053,0.538-3.46,0.719
	c-1.408,0.18-3.222,0.27-5.438,0.27c-2.157,0-3.954-0.09-5.392-0.27c-1.438-0.181-2.592-0.419-3.46-0.719
	c-0.869-0.3-1.469-0.688-1.797-1.169c-0.33-0.479-0.494-1.018-0.494-1.617V11.513c0-3.055,0.807-5.392,2.426-7.01
	c1.618-1.618,3.774-2.426,6.47-2.426h15.459c2.754,0,5.123,0.225,7.1,0.674s3.685,1.2,5.123,2.247
	c1.438,1.049,2.636,2.427,3.596,4.135c0.956,1.708,1.798,3.819,2.516,6.336l25.166,69.293l-3.786,10.986l30.208-80.1
	c0.778-2.516,1.633-4.642,2.562-6.381c0.929-1.738,2.008-3.145,3.235-4.224c1.227-1.079,2.681-1.843,4.359-2.292
	c1.677-0.449,3.624-0.674,5.842-0.674h15.907c1.618,0,3.012,0.211,4.181,0.629c1.167,0.42,6.35,1.034,7.098,1.842
	c0.749,0.809,1.318,1.797,1.708,2.966c0.39,1.168,0.584,2.503,0.584,3.999V115.139z"/>
</svg>
